<?xml version="1.0" standalone="no"?>
<!DOCTYPE svg PUBLIC "-//W3C//DTD SVG 20010904//EN"
 "http://www.w3.org/TR/2001/REC-SVG-20010904/DTD/svg10.dtd">
<svg version="1.0" xmlns="http://www.w3.org/2000/svg"
 width="1080.000000pt" height="929.000000pt" viewBox="0 0 1080.000000 929.000000"
 preserveAspectRatio="xMidYMid meet">
<metadata>
Created by potrace 1.16, written by Peter Selinger 2001-2019
</metadata>
<g transform="translate(0.000000,929.000000) scale(0.100000,-0.100000)"
fill="#000000" stroke="none">
<path d="M5193 9283 c-13 -2 -23 -7 -23 -11 0 -4 -13 -13 -30 -20 -30 -14
-115 -114 -145 -171 -47 -91 -48 -106 -52 -533 -5 -458 3 -583 42 -680 14 -35
31 -67 38 -73 7 -5 24 -26 37 -45 30 -42 70 -79 88 -80 6 0 12 -4 12 -10 0
-20 98 -59 177 -70 173 -23 307 35 439 190 22 26 52 106 65 172 19 96 19 931
0 1018 -13 58 -53 157 -70 170 -3 3 -26 28 -49 57 -24 29 -53 55 -65 59 -12 4
-25 12 -29 18 -7 11 -388 19 -435 9z"/>
<path d="M1685 7826 c-74 -23 -122 -55 -189 -122 -75 -77 -101 -132 -111 -240
-8 -79 6 -171 38 -258 19 -50 45 -82 192 -234 466 -482 571 -573 695 -601 73
-17 200 -13 261 7 65 22 169 95 195 137 84 139 87 146 92 246 5 102 -9 189
-34 210 -8 6 -14 18 -14 25 0 46 -140 207 -394 453 -43 42 -127 124 -187 183
-59 58 -117 109 -129 113 -11 3 -20 10 -20 15 0 13 -76 51 -135 66 -62 17
-207 17 -260 0z"/>
<path d="M8945 7833 c-104 -13 -225 -52 -225 -71 0 -4 -11 -14 -24 -22 -56
-35 -215 -187 -522 -501 -130 -134 -203 -234 -224 -309 -18 -63 -22 -154 -11
-213 12 -66 90 -207 131 -239 131 -99 179 -118 304 -118 172 1 249 42 448 241
76 75 141 139 146 141 10 4 317 325 359 376 122 147 127 389 12 538 -83 108
-166 160 -278 175 -36 4 -70 8 -76 7 -5 0 -23 -3 -40 -5z"/>
<path d="M5050 5953 c-41 -2 -79 -8 -84 -13 -6 -6 -34 -10 -62 -10 -100 0
-464 -54 -569 -85 -27 -8 -122 -31 -210 -51 -88 -20 -162 -39 -165 -43 -3 -4
-32 -13 -65 -20 -91 -20 -222 -59 -269 -81 -23 -10 -55 -22 -71 -25 -43 -10
-179 -58 -185 -65 -3 -3 -50 -20 -105 -39 -55 -18 -115 -42 -134 -53 -19 -11
-55 -26 -80 -35 -47 -16 -110 -45 -358 -164 -78 -38 -146 -69 -151 -69 -5 0
-16 -7 -23 -16 -8 -9 -45 -31 -84 -49 -39 -17 -77 -38 -85 -46 -8 -8 -37 -25
-65 -37 -27 -13 -72 -39 -100 -57 -27 -18 -78 -48 -113 -66 -34 -17 -62 -36
-62 -40 0 -5 -24 -20 -54 -35 -30 -15 -67 -37 -83 -50 -15 -14 -51 -39 -80
-57 -222 -138 -668 -483 -953 -737 -46 -41 -100 -88 -119 -105 -19 -16 -53
-48 -76 -70 -23 -22 -119 -114 -213 -205 -94 -91 -172 -170 -172 -176 0 -6
-11 -16 -25 -22 -13 -6 -41 -34 -60 -61 -19 -27 -46 -56 -60 -65 -34 -23 -92
-113 -105 -168 -8 -29 -10 -99 -8 -185 6 -202 6 -203 373 -566 132 -131 266
-261 297 -290 32 -29 77 -70 101 -92 75 -69 169 -149 191 -164 12 -8 24 -20
29 -27 4 -7 31 -29 60 -50 28 -21 57 -44 62 -50 14 -15 152 -124 195 -154 19
-13 37 -27 40 -30 10 -12 198 -150 222 -163 13 -6 33 -22 45 -33 11 -12 43
-35 69 -50 27 -15 59 -37 71 -49 12 -12 45 -34 74 -50 28 -15 60 -36 69 -45
10 -10 41 -30 70 -44 29 -14 64 -36 79 -47 36 -29 239 -148 281 -165 19 -8 37
-19 40 -23 3 -5 86 -50 185 -101 98 -50 184 -95 190 -99 5 -5 53 -26 105 -47
52 -20 96 -41 98 -45 2 -5 40 -22 85 -39 45 -17 107 -44 137 -59 30 -16 93
-41 140 -56 47 -16 94 -34 105 -41 11 -6 58 -24 105 -39 47 -15 120 -40 162
-56 43 -16 126 -41 185 -55 60 -14 117 -29 128 -34 35 -16 165 -48 290 -71 66
-12 125 -25 130 -30 9 -7 177 -32 460 -69 129 -17 710 -24 895 -11 225 15 592
64 615 81 6 4 28 10 50 14 89 16 361 78 370 86 6 4 66 22 135 40 68 17 149 42
180 55 30 12 96 35 145 50 50 15 99 32 110 39 11 7 56 25 100 40 44 15 118 44
165 65 47 21 106 46 133 56 26 9 53 22 60 29 6 6 55 28 107 50 52 21 102 43
110 50 8 7 95 52 193 100 97 49 177 92 177 96 0 4 19 15 43 25 23 9 97 51 165
93 67 43 154 96 194 119 39 23 74 46 77 51 3 5 30 22 58 38 29 15 66 40 83 55
17 16 46 36 65 45 19 9 45 26 58 38 12 12 47 37 76 55 29 19 59 41 67 48 7 8
37 30 66 50 29 19 60 41 68 49 18 17 79 65 171 134 37 28 69 57 73 65 3 8 11
15 18 15 7 0 37 21 66 48 29 26 70 60 92 77 22 16 47 39 55 52 9 13 21 23 27
23 10 0 47 31 198 171 174 160 543 534 582 589 64 92 78 141 78 274 0 61 -5
129 -11 151 -15 56 -83 167 -119 193 -17 13 -30 28 -30 35 0 19 -540 544 -571
555 -5 2 -33 27 -62 56 -133 132 -787 647 -899 708 -17 10 -34 21 -37 26 -9
13 -98 72 -109 72 -5 0 -21 11 -36 25 -15 14 -54 39 -86 55 -32 16 -61 34 -64
39 -4 5 -35 25 -70 45 -35 20 -88 52 -117 71 -29 19 -72 43 -96 52 -24 10 -43
22 -43 26 0 5 -35 24 -77 44 -43 19 -85 42 -94 50 -19 16 -156 83 -170 83 -6
0 -19 8 -30 19 -11 10 -52 31 -92 46 -40 15 -79 33 -87 39 -22 17 -87 46 -155
68 -33 11 -63 24 -66 29 -5 9 -102 48 -186 74 -23 8 -52 20 -65 28 -13 8 -68
29 -123 46 -55 18 -113 38 -130 45 -44 20 -149 52 -235 72 -41 9 -77 20 -80
24 -6 8 -137 42 -275 71 -49 10 -115 25 -145 34 -71 20 -366 62 -495 71 -55 4
-106 11 -114 17 -13 11 -620 19 -781 10z m640 -923 c172 -23 249 -37 264 -49
13 -9 171 -61 189 -61 7 0 48 -18 91 -41 44 -22 102 -50 130 -60 27 -11 54
-26 60 -34 6 -7 31 -24 56 -36 25 -12 60 -34 79 -48 19 -13 57 -40 85 -59 28
-18 59 -42 71 -53 11 -11 60 -55 109 -98 48 -44 96 -93 106 -109 10 -16 28
-37 41 -48 14 -10 45 -48 71 -84 26 -36 55 -74 66 -85 16 -17 68 -106 144
-248 9 -18 36 -79 59 -137 23 -58 45 -109 49 -115 10 -12 51 -182 82 -335 20
-101 23 -145 23 -360 0 -160 -5 -271 -13 -320 -21 -119 -84 -370 -93 -370 -4
0 -13 -17 -19 -37 -22 -68 -94 -227 -122 -269 -15 -23 -28 -44 -28 -47 0 -10
-67 -115 -84 -132 -10 -10 -29 -36 -42 -57 -36 -56 -180 -218 -230 -256 -23
-18 -45 -39 -47 -46 -3 -8 -27 -28 -54 -46 -26 -18 -51 -38 -56 -46 -4 -7 -34
-29 -67 -49 -33 -20 -60 -40 -60 -44 0 -4 -34 -24 -75 -45 -42 -21 -81 -43
-88 -50 -6 -6 -46 -26 -87 -44 -41 -18 -93 -42 -115 -52 -22 -11 -94 -36 -160
-56 -66 -20 -122 -40 -125 -43 -7 -10 -199 -40 -334 -53 -122 -11 -303 -5
-466 17 -146 20 -184 27 -190 35 -3 3 -66 23 -140 44 -74 21 -142 43 -150 50
-15 12 -183 86 -195 86 -3 0 -15 8 -25 18 -11 10 -49 33 -85 52 -36 18 -65 37
-65 42 0 4 -29 24 -65 45 -36 20 -65 41 -65 45 0 4 -24 25 -52 47 -97 71 -273
255 -334 346 -20 30 -41 58 -48 63 -12 7 -18 18 -78 127 -22 38 -42 72 -47 75
-4 3 -32 61 -61 130 -29 69 -56 130 -61 135 -4 6 -19 55 -34 110 -65 243 -95
537 -77 743 16 176 86 523 112 557 5 6 18 35 30 65 33 86 83 194 96 207 7 7
32 50 57 96 25 46 58 98 74 114 15 17 45 55 65 84 39 55 235 257 330 340 30
26 71 57 93 69 22 12 47 30 55 40 8 10 38 29 65 43 28 14 65 36 83 50 18 13
67 40 110 58 42 18 80 37 83 42 3 4 60 26 125 48 65 21 128 43 139 49 11 5 52
17 92 25 213 47 512 57 753 25z m-3046 -867 c-10 -55 -64 -236 -74 -248 -23
-27 -92 -314 -106 -440 -3 -33 -10 -64 -14 -70 -38 -50 -38 -811 0 -860 4 -5
11 -37 15 -70 15 -130 83 -435 107 -479 15 -28 69 -208 64 -213 -5 -6 -54 20
-108 56 -24 16 -59 35 -78 44 -19 8 -48 26 -65 41 -16 14 -34 26 -39 26 -8 0
-211 133 -279 183 -18 13 -72 54 -122 90 -49 37 -96 67 -102 67 -7 0 -13 4
-13 10 0 5 -26 29 -57 52 -32 24 -60 45 -63 48 -3 3 -30 25 -60 50 -182 148
-361 306 -506 448 -36 34 -69 62 -74 62 -21 0 -9 29 23 55 17 15 85 78 149
139 139 131 204 190 276 246 28 23 52 45 52 49 0 4 23 22 51 41 28 18 53 38
56 46 3 7 24 24 46 38 23 13 58 40 76 60 19 20 40 36 47 36 6 0 33 19 59 42
26 23 60 49 76 57 15 9 43 29 61 44 18 15 60 45 93 67 33 21 107 71 165 110
58 39 123 81 145 92 22 11 48 28 59 37 19 17 125 78 139 80 4 0 5 -16 1 -36z
m5570 6 c26 -10 58 -25 70 -34 11 -8 41 -29 66 -45 25 -16 92 -61 150 -100 58
-39 132 -89 165 -111 33 -22 75 -52 93 -67 18 -15 47 -35 64 -44 17 -9 39 -26
50 -38 11 -12 44 -37 73 -56 29 -18 55 -37 57 -42 1 -5 26 -25 54 -46 29 -20
71 -54 95 -76 24 -22 50 -40 57 -40 7 0 15 -7 18 -15 4 -8 29 -33 58 -55 28
-22 69 -57 92 -78 22 -20 80 -73 130 -117 110 -98 190 -178 203 -204 15 -28 6
-44 -63 -115 -77 -80 -360 -329 -501 -441 -28 -21 -52 -42 -55 -45 -3 -3 -31
-24 -62 -48 -32 -23 -58 -47 -58 -52 0 -6 -5 -10 -10 -10 -15 0 -120 -80 -120
-91 0 -5 -5 -9 -11 -9 -7 0 -55 -31 -108 -69 -53 -37 -136 -96 -186 -129 -49
-34 -95 -65 -100 -70 -6 -5 -42 -26 -80 -47 -39 -21 -74 -43 -80 -49 -5 -7
-42 -28 -81 -48 l-71 -35 54 156 c100 290 130 405 155 601 6 52 15 97 18 100
11 8 30 239 30 369 0 144 -19 375 -31 379 -5 2 -9 18 -9 35 0 83 -74 439 -107
517 -14 33 -103 291 -103 299 0 2 8 0 18 -4 9 -4 39 -16 66 -26z"/>
<path d="M5278 4269 c-101 -9 -191 -26 -233 -44 -16 -7 -68 -26 -114 -41 -46
-15 -99 -38 -118 -51 -19 -13 -53 -33 -76 -44 -78 -40 -307 -227 -307 -251 0
-6 -11 -19 -24 -29 -41 -32 -158 -218 -193 -309 -19 -47 -38 -93 -44 -103 -5
-9 -19 -54 -30 -100 -26 -104 -37 -386 -20 -506 14 -92 38 -193 49 -201 4 -3
15 -30 25 -62 21 -68 71 -181 89 -199 7 -8 31 -43 52 -79 45 -75 182 -230 202
-230 8 0 14 -4 14 -10 0 -5 24 -28 53 -50 28 -22 61 -48 72 -56 11 -9 49 -30
85 -46 35 -17 69 -36 75 -43 11 -13 169 -70 225 -81 19 -3 40 -10 45 -14 25
-19 161 -34 295 -34 139 0 284 17 295 34 3 5 24 11 48 15 57 10 210 64 222 79
6 6 26 18 45 26 36 14 111 58 120 70 3 3 27 21 53 39 26 18 53 41 60 52 6 10
17 19 23 19 26 0 213 227 228 278 4 12 12 22 17 22 11 0 69 125 93 201 10 30
23 65 30 79 64 120 65 593 2 734 -8 17 -24 63 -36 101 -30 94 -76 195 -89 195
-6 0 -11 5 -11 10 0 23 -84 131 -172 221 -95 98 -237 211 -297 236 -18 8 -42
22 -53 33 -11 10 -61 33 -111 50 -51 18 -105 38 -122 45 -78 34 -321 57 -467
44z m230 -918 c9 -5 33 -16 52 -25 98 -44 127 -74 193 -196 27 -50 29 -64 30
-150 0 -88 -2 -99 -32 -155 -54 -101 -99 -150 -175 -189 -38 -20 -83 -36 -101
-36 -19 0 -37 -4 -40 -10 -8 -12 -62 -13 -69 -1 -3 5 -25 12 -49 15 -61 9
-161 59 -196 98 -17 18 -47 65 -67 103 -34 64 -38 79 -42 167 -4 91 -2 101 23
150 67 130 126 181 245 211 25 6 49 15 55 19 12 11 151 10 173 -1z"/>
</g>
</svg>
