<?xml version="1.0" encoding="iso-8859-1"?>
<!-- Uploaded to: SVG Repo, www.svgrepo.com, Generator: SVG Repo Mixer Tools -->
<svg height="800px" width="800px" version="1.1" id="Layer_1" xmlns="http://www.w3.org/2000/svg" xmlns:xlink="http://www.w3.org/1999/xlink" 
	 viewBox="0 0 512.001 512.001" xml:space="preserve">
<path style="fill:#F79D1E;" d="M464.759,166.872c-9.57,0-17.329,7.759-17.329,17.329v204.721c-1.703-0.03-3.426,0.055-5.15,0.274
	l-75.259,9.597c-10.47,1.368-20.314,5.569-28.464,12.152c-11.811,9.538-19.201,23.103-20.809,38.198
	c-1.608,15.094,2.759,29.914,12.296,41.724c9.538,11.81,23.103,19.2,38.197,20.808c2.049,0.218,4.094,0.327,6.127,0.327
	c12.936,0,25.39-4.381,35.596-12.623l59.024-47.661c8.124-6.596,12.897-16.361,13.095-26.788c0.002-0.11,0.003-0.22,0.003-0.329
	V184.201C482.088,174.63,474.329,166.872,464.759,166.872z"/>
<path style="fill:#FBB03B;" d="M399.755,394.618l-32.735,4.174c-10.47,1.368-20.314,5.569-28.464,12.152
	c-11.811,9.538-19.201,23.103-20.809,38.198c-1.608,15.094,2.759,29.914,12.296,41.724c9.538,11.81,23.103,19.2,38.197,20.808
	c2.049,0.218,4.094,0.327,6.127,0.327c8.88,0,17.532-2.064,25.386-6.025L399.755,394.618z"/>
<path style="fill:#39B7B6;" d="M352.16,88.374c0-6.815-3.995-12.998-10.208-15.798L184.342,1.532
	c-5.363-2.42-11.586-1.95-16.526,1.243c-4.94,3.192-7.924,8.672-7.924,14.555v204.734c-1.705-0.036-3.425,0.042-5.15,0.26
	l-75.259,9.597c-10.468,1.368-20.309,5.568-28.465,12.153c-24.38,19.688-28.199,55.541-8.513,79.922
	c11.215,13.887,27.675,21.105,44.271,21.105c12.539,0,25.157-4.12,35.65-12.592l59.024-47.661
	c8.124-6.598,12.897-16.361,13.096-26.787c0.001-0.07-0.003-0.139-0.002-0.209c0-0.04,0.006-0.081,0.006-0.121V113.136
	l120.672,55.133c0.75,0.342,1.512,0.606,2.28,0.834v124.005c-1.705-0.036-3.425,0.043-5.15,0.261l-75.259,9.597
	c-10.469,1.368-20.311,5.568-28.465,12.153c-24.38,19.688-28.199,55.541-8.513,79.922c11.215,13.887,27.675,21.105,44.271,21.105
	c12.539-0.001,25.157-4.12,35.65-12.592l59.024-47.661c8.124-6.596,12.897-16.361,13.095-26.787c0.001-0.07-0.003-0.139-0.002-0.209
	c0-0.04,0.006-0.081,0.006-0.121V88.374H352.16z"/>
<g>
	<path style="fill:#66CBC4;" d="M184.342,1.532c-5.363-2.42-11.586-1.95-16.526,1.243c-4.94,3.192-7.924,8.672-7.924,14.555v204.734
		c-1.705-0.036-3.425,0.042-5.15,0.26l-75.259,9.597c-10.468,1.368-20.309,5.568-28.465,12.153
		c-24.38,19.688-28.199,55.541-8.513,79.922c11.215,13.887,27.675,21.105,44.271,21.105c12.539,0,25.157-4.12,35.65-12.592
		l59.024-47.661c8.124-6.598,12.897-16.361,13.096-26.787c0.001-0.07-0.003-0.139-0.002-0.209c0-0.04,0.006-0.081,0.006-0.121
		V113.136l49.37,22.556V28.388L184.342,1.532z"/>
	<path style="fill:#66CBC4;" d="M243.919,302.094l-6.827,0.871c-10.469,1.368-20.311,5.568-28.465,12.153
		c-24.38,19.688-28.199,55.541-8.513,79.922c11.215,13.887,27.675,21.105,44.271,21.105L243.919,302.094z"/>
</g>
</svg>